<?xml version="1.0" encoding="UTF-8" standalone="no"?>
<!-- Created with Inkscape (http://www.inkscape.org/) -->

<svg
   width="512"
   height="512"
   viewBox="0 0 135.46666 135.46667"
   version="1.1"
   id="svg5"
   inkscape:version="1.1 (c68e22c387, 2021-05-23)"
   sodipodi:docname="icon001.svg"
   xmlns:inkscape="http://www.inkscape.org/namespaces/inkscape"
   xmlns:sodipodi="http://sodipodi.sourceforge.net/DTD/sodipodi-0.dtd"
   xmlns="http://www.w3.org/2000/svg"
   xmlns:svg="http://www.w3.org/2000/svg">
  <sodipodi:namedview
     id="namedview7"
     pagecolor="#505050"
     bordercolor="#eeeeee"
     borderopacity="1"
     inkscape:pageshadow="0"
     inkscape:pageopacity="0"
     inkscape:pagecheckerboard="0"
     inkscape:document-units="mm"
     showgrid="false"
     units="px"
     inkscape:zoom="0.84582576"
     inkscape:cx="259.50971"
     inkscape:cy="257.14516"
     inkscape:window-width="878"
     inkscape:window-height="729"
     inkscape:window-x="472"
     inkscape:window-y="0"
     inkscape:window-maximized="0"
     inkscape:current-layer="layer1" />
  <defs
     id="defs2" />
  <g
     inkscape:label="Layer 1"
     inkscape:groupmode="layer"
     id="layer1">
    <path
       style="fill:#000000;stroke:#000000;stroke-width:0.264583px;stroke-linecap:butt;stroke-linejoin:miter;stroke-opacity:1"
       d="m 19.880732,60.077011 c -2.499794,-3.76623 -6.265456,-9.458913 -3.801955,-14.081387 1.202125,-2.25565 9.855506,-2.399112 7.561853,-1.271186 -5.708905,2.807412 -4.685982,-12.659687 -2.523422,-15.292038 2.253654,-2.743231 1.024668,-6.340199 3.187923,-8.217294 2.408898,-2.090243 8.971406,-1.54274 7.259044,-0.680991 -0.626078,0.315074 6.505538,-7.285208 13.163849,-7.672502 1.556406,-0.09053 8.491259,2.0053 3.936537,2.360769 -4.288597,0.3347 10.135618,-7.8555196 16.326537,-0.915555 1.442419,1.616937 -2.337236,3.044605 -3.095397,3.866518 -0.895588,0.970895 2.723922,-0.06972 3.936537,0.453994 2.654384,1.146405 4.177093,4.666769 3.431855,7.422805 -0.975855,3.608896 -10.152526,11.04723 -14.29098,7.32444 -0.10387,-0.09344 8.442489,0.331406 4.516927,6.666147 -1.192045,1.923622 -8.233142,3.462462 -6.476783,2.035408 2.310379,-1.877197 6.052368,1.87551 4.045887,4.25998 -1.71668,2.040072 -9.719895,4.339897 -7.183342,3.518455 1.993151,-0.645467 4.647247,2.067441 3.263627,3.987583 -2.425522,3.366053 -16.294676,3.055861 -12.289065,1.974874 1.777839,-0.479782 -7.112989,5.874478 -16.780752,5.099868"
       id="path1363" />
    <path
       style="fill:#000000;stroke:#000000;stroke-width:0.264583px;stroke-linecap:butt;stroke-linejoin:miter;stroke-opacity:1"
       d="m 67.842566,70.231348 c -3.313623,-3.578534 -1.687896,-14.452774 1.842098,-18.046271 5.544391,-5.644136 8.431389,5.850805 7.359978,5.190667 -7.61015,-4.688898 -6.740345,-17.471657 -3.667374,-24.508121 1.516819,-3.473198 13.430229,-6.053648 10.901182,-3.230925 -1.088564,1.21497 -6.393119,-6.858202 2.136498,-10.282968 2.16109,-0.86771 9.061082,0.06354 6.930998,-0.877722 -2.455545,-1.08508 -5.434438,-4.038509 -1.572935,-5.886792 3.13068,-1.498478 23.237469,-1.532409 26.420229,0.370762 8.05891,4.818937 -0.31335,12.909712 -3.85243,16.956684 -0.51252,0.586068 4.13894,0.737592 4.87021,1.157684 2.71645,1.560526 2.92066,5.71145 2.05238,8.33836 -1.06938,3.235317 -4.22248,6.327706 -7.5198,7.271475 -1.15979,0.331959 2.37691,1.297207 2.64119,2.474269 0.49134,2.188411 -1.07061,3.956294 -2.66642,5.198232 -2.0706,1.611447 -7.38644,0.990417 -7.0067,3.586554 0.23665,1.617906 4.46038,2.383909 4.31505,6.038125 -0.17766,4.467228 -3.98904,5.534115 -7.51139,6.529948 -1.10612,0.312725 2.14747,1.413714 2.32155,2.549935 0.2868,1.871941 -1.30268,2.892484 -2.88511,3.420089 -4.759642,1.586939 -13.351927,-3.035183 -11.069409,-2.731532 2.187067,0.290955 -8.418888,3.036414 -9.959104,3.02663 -4.383937,-0.02785 -8.522417,-2.300677 -12.440468,-4.267547"
       id="path1365" />
    <path
       style="fill:none;stroke:#000000;stroke-width:0.264583px;stroke-linecap:butt;stroke-linejoin:miter;stroke-opacity:1"
       d="m 23.573339,125.58081 c -11.036974,0.84146 -8.765546,0.91131 -2.843055,0.34049 22.894636,-2.20661 55.237887,-1.18919 74.651221,-2.22457"
       id="path1377" />
    <path
       style="fill:none;stroke:#000000;stroke-width:0.264583px;stroke-linecap:butt;stroke-linejoin:miter;stroke-opacity:1"
       d="M 99.343278,87.604191 C 107.673,80.79529 122.09863,90.124985 129.60751,83.298815"
       id="path1564" />
    <path
       style="fill:none;stroke:#000000;stroke-width:0.264583px;stroke-linecap:butt;stroke-linejoin:miter;stroke-opacity:1"
       d="m 114.18941,64.405089 c 4.71357,-4.306716 11.49924,-0.586283 16.78916,-4.358344"
       id="path1566" />
    <path
       style="fill:none;stroke:#000000;stroke-width:0.264583px;stroke-linecap:butt;stroke-linejoin:miter;stroke-opacity:1"
       d="m 121.76808,28.085552 c 1.35955,-5.353689 8.11871,-2.145792 11.75915,-3.609254"
       id="path1568" />
    <path
       style="fill:none;stroke:#000000;stroke-width:0.264583px;stroke-linecap:butt;stroke-linejoin:miter;stroke-opacity:1"
       d="M 62.400386,8.8815967 C 71.942115,4.4190864 87.359978,7.5574966 97.635763,5.0075128"
       id="path1570" />
    <path
       style="fill:none;stroke:#000000;stroke-width:0.264583px;stroke-linecap:butt;stroke-linejoin:miter;stroke-opacity:1"
       d="M 10.039388,20.715712 C 13.084855,7.3598137 32.60775,16.14548 41.96067,10.523542"
       id="path1572" />
    <path
       style="fill:#000000;stroke:#000000;stroke-width:0.264583px;stroke-linecap:butt;stroke-linejoin:miter;stroke-opacity:1"
       d="M 44.711201,79.500396 C 42.740243,73.948331 56.658803,75.344752 59.363869,73.371474"
       id="path1574" />
    <path
       style="fill:#000000;stroke:#000000;stroke-width:0.264583px;stroke-linecap:butt;stroke-linejoin:miter;stroke-opacity:1"
       d="m 52.180529,118.70279 c 0.0729,-0.28248 0.03034,-0.62467 0.218697,-0.84745 0.524303,-0.62012 4.037472,-3.53293 4.037472,-4.25241 0,-2.34439 -0.451604,6.0543 -2.75894,6.46941 -0.281424,0.0506 -5.292428,-5.57963 -5.316008,-5.51603 -0.794242,2.14341 3.860835,7.95319 3.860835,5.66737 0,-4.79806 -1.34393,-9.8345 -1.2533,-14.76238 0.06105,-3.31916 0.117236,-6.639093 0.210286,-9.957608 0.02801,-0.999017 0.221501,-16.714629 -0.227108,-10.941262 1.525401,-3.344334 -7.195421,12.602209 -4.558981,10.040841 0.821213,-0.79783 3.778532,-10.76766 4.558981,-10.040841 2.153034,2.005085 3.183034,6.359793 4.996375,8.799923 0.586165,0.788775 2.985038,2.281732 2.010326,2.156473 -2.448591,-0.314666 -17.008015,-1.320571 -8.688982,-1.710045"
       id="path1741" />
    <path
       style="fill:#000000;stroke:#000000;stroke-width:0.264583px;stroke-linecap:butt;stroke-linejoin:miter;stroke-opacity:1"
       d="M 9.8795712,90.812418 C 13.549202,86.171139 20.137066,88.212701 25.407025,87.422595 28.490042,86.960368 36.619497,82.078054 33.63338,82.973451 26.208434,85.199849 20.893827,94.954036 11.629143,90.411389"
       id="path2230" />
    <path
       style="fill:#000000;stroke:#000000;stroke-width:0.264583px;stroke-linecap:butt;stroke-linejoin:miter;stroke-opacity:1"
       d="m 60.533054,101.58721 c 7.479316,-10.025971 23.641193,-0.7175 33.687679,-1.55114 3.632382,-0.301413 12.913197,-6.363337 9.328247,-5.705197 -9.74509,1.789041 -17.306951,8.094997 -28.18662,6.764517 -1.227783,-0.15015 -14.648802,0.6928 -14.829306,0.49182 -2.597195,-2.891691 1.899164,-1.596145 2.052381,-1.55871"
       id="path2232" />
  </g>
</svg>
