<?xml version="1.0" encoding="UTF-8" standalone="no"?>
<!-- Created with Inkscape (http://www.inkscape.org/) -->

<svg
   width="512"
   height="512"
   viewBox="0 0 135.46666 135.46667"
   version="1.1"
   id="svg5"
   inkscape:version="1.1 (c68e22c387, 2021-05-23)"
   sodipodi:docname="icon001.svg"
   xmlns:inkscape="http://www.inkscape.org/namespaces/inkscape"
   xmlns:sodipodi="http://sodipodi.sourceforge.net/DTD/sodipodi-0.dtd"
   xmlns="http://www.w3.org/2000/svg"
   xmlns:svg="http://www.w3.org/2000/svg">
  <sodipodi:namedview
     id="namedview7"
     pagecolor="#505050"
     bordercolor="#eeeeee"
     borderopacity="1"
     inkscape:pageshadow="0"
     inkscape:pageopacity="0"
     inkscape:pagecheckerboard="0"
     inkscape:document-units="mm"
     showgrid="false"
     units="px"
     inkscape:zoom="0.84582576"
     inkscape:cx="259.50971"
     inkscape:cy="257.14516"
     inkscape:window-width="878"
     inkscape:window-height="729"
     inkscape:window-x="472"
     inkscape:window-y="0"
     inkscape:window-maximized="0"
     inkscape:current-layer="layer1" />
  <defs
     id="defs2" />
  <g
     inkscape:label="Layer 1"
     inkscape:groupmode="layer"
     id="layer1">
    <path
       style="fill:#ffffff;stroke:#000000;stroke-width:0.264583px;stroke-linecap:butt;stroke-linejoin:miter;stroke-opacity:1"
       d="M 46.965457,6.6494585 C 41.664477,3.7568433 33.996921,4.2543301 28.308961,6.1576314 23.387443,7.8044658 15.08761,11.273758 11.856251,15.547745 4.2983612,25.544258 4.384785,73.824096 7.1038074,86.34814 c 4.2896886,19.75867 19.4598876,31.22231 36.8503656,38.19605 17.118518,6.86468 56.021213,11.81126 71.976397,-3.38983 13.58226,-12.94032 6.94861,-32.804896 8.52075,-48.675741 0.52653,-5.315342 5.7779,-9.457198 6.22444,-15.231507 C 131.89789,41.44361 119.26151,10.357291 103.0443,5.6052717 83.011686,-0.26474729 62.234153,10.989375 46.965457,6.6494585 Z"
       id="path3198" />
    <path
       style="fill:#000000;stroke:#000000;stroke-width:0.264583px;stroke-linecap:butt;stroke-linejoin:miter;stroke-opacity:1"
       d="m 17.088145,57.640574 c 1.417703,-2.990686 7.586048,-2.238092 11.447924,-1.725179 12.016356,1.595951 23.08529,5.621012 35.386782,6.022991 15.195672,0.496554 29.416779,-3.344537 44.403809,-4.161613 4.45095,-0.242662 10.56479,1.653752 12.73487,0.794489"
       id="path3011" />
    <path
       style="fill:#000000;stroke:#000000;stroke-width:0.264583px;stroke-linecap:butt;stroke-linejoin:miter;stroke-opacity:1"
       d="m 25.474316,73.038546 c -0.490723,-4.352137 9.478158,-1.546953 13.609653,-0.64316"
       id="path3013" />
    <path
       style="fill:#000000;stroke:#000000;stroke-width:0.264583px;stroke-linecap:butt;stroke-linejoin:miter;stroke-opacity:1"
       d="m 59.153583,71.616029 c 3.935947,0.780003 8.086971,0.605968 12.08719,0.650725"
       id="path3015" />
    <path
       style="fill:#000000;stroke:#000000;stroke-width:0.264583px;stroke-linecap:butt;stroke-linejoin:miter;stroke-opacity:1"
       d="m 95.297391,71.056102 c 4.33646,0.04992 8.748789,0.0108 13.046089,-0.05296"
       id="path3017" />
    <path
       style="fill:#000000;stroke:#000000;stroke-width:0.264583px;stroke-linecap:butt;stroke-linejoin:miter;stroke-opacity:1"
       d="m 16.432056,83.245848 c 4.89245,-3.014776 11.237571,-2.316321 16.75552,-1.96731 15.858313,1.003046 31.355987,5.30982 47.263684,5.947326 10.352789,0.41489 20.8649,-4.09384 30.94556,-2.398604"
       id="path3019" />
    <path
       style="fill:#000000;stroke:#000000;stroke-width:0.264583px;stroke-linecap:butt;stroke-linejoin:miter;stroke-opacity:1"
       d="m 29.326739,94.520037 c 3.994317,0.284896 8.005503,0.11198 12.003077,0.166465"
       id="path3021" />
    <path
       style="fill:#000000;stroke:#000000;stroke-width:0.264583px;stroke-linecap:butt;stroke-linejoin:miter;stroke-opacity:1"
       d="m 60.709693,94.202241 c 4.993296,1.134843 10.022792,1.962002 15.14053,2.224572"
       id="path3023" />
    <path
       style="fill:#000000;stroke:#000000;stroke-width:0.264583px;stroke-linecap:butt;stroke-linejoin:miter;stroke-opacity:1"
       d="m 90.91505,96.98674 c 5.083825,0.672017 10.14112,1.022752 15.25829,0.892855"
       id="path3025" />
    <path
       style="fill:#000000;stroke:#000000;stroke-width:0.264583px;stroke-linecap:butt;stroke-linejoin:miter;stroke-opacity:1"
       d="m 106.17334,97.879595 c 4.39233,-1.857076 6.39434,-1.905921 10.09368,-2.035408"
       id="path3027" />
    <path
       style="fill:#000000;stroke:#000000;stroke-width:0.264583px;stroke-linecap:butt;stroke-linejoin:miter;stroke-opacity:1"
       d="m 18.484439,104.45494 c 14.119972,-7.923683 32.863142,1.42694 47.785192,2.7618 6.765769,0.60524 12.779494,-2.96333 19.51446,-1.21822"
       id="path3029" />
    <path
       style="fill:#000000;stroke:#000000;stroke-width:0.264583px;stroke-linecap:butt;stroke-linejoin:miter;stroke-opacity:1"
       d="m 43.525191,118.0899 c 16.783108,-14.01721 56.338961,9.78977 69.755789,-1.12742"
       id="path3031" />
    <path
       style="fill:#000000;stroke:#000000;stroke-width:0.264583px;stroke-linecap:butt;stroke-linejoin:miter;stroke-opacity:1"
       d="m 25.25562,41.955074 c 14.948209,0.471651 43.604792,9.25567 52.958207,2.285106"
       id="path3033" />
    <path
       style="fill:#000000;stroke:#000000;stroke-width:0.264583px;stroke-linecap:butt;stroke-linejoin:miter;stroke-opacity:1"
       d="m 63.460222,26.958134 c 15.758593,-6.609729 35.662245,8.550179 49.618878,0.264829"
       id="path3035" />
    <path
       style="fill:#000000;stroke:#000000;stroke-width:0.264583px;stroke-linecap:butt;stroke-linejoin:miter;stroke-opacity:1"
       d="M 51.137515,35.341893 C 41.560371,25.54013 27.301351,29.735076 14.674072,27.631556"
       id="path3037" />
    <path
       style="fill:#000000;stroke:#000000;stroke-width:0.264583px;stroke-linecap:butt;stroke-linejoin:miter;stroke-opacity:1"
       d="M 40.70737,17.439387 C 52.517005,14.03306 68.143159,18.160989 81.712971,16.153071"
       id="path3039" />
    <path
       style="fill:#000000;stroke:#000000;stroke-width:0.264583px;stroke-linecap:butt;stroke-linejoin:miter;stroke-opacity:1"
       d="m 90.763644,42.923594 c 0.102238,-7.906813 20.233306,3.81239 25.738896,-3.798416"
       id="path3041" />
    <path
       style="fill:#000000;stroke:#000000;stroke-width:0.264583px;stroke-linecap:butt;stroke-linejoin:miter;stroke-opacity:1"
       d="m 63.460222,26.958134 c -2.445965,9.159443 3.602749,6.314381 9.151609,6.545082"
       id="path3043" />
    <path
       style="fill:#000000;stroke:#000000;stroke-width:0.264583px;stroke-linecap:butt;stroke-linejoin:miter;stroke-opacity:1"
       d="m 21.680773,20.730846 c 2.280547,0.835293 4.779484,0.73061 7.174928,0.900421"
       id="path3045" />
    <path
       style="fill:#000000;stroke:#000000;stroke-width:0.264583px;stroke-linecap:butt;stroke-linejoin:miter;stroke-opacity:1"
       d="m 81.712971,16.153071 c 3.087431,5.012105 7.896582,3.440759 12.818983,3.457922"
       id="path3047" />
    <path
       style="fill:#000000;stroke:#000000;stroke-width:0.264583px;stroke-linecap:butt;stroke-linejoin:miter;stroke-opacity:1"
       d="m 49.438411,26.63277 c 2.276219,-0.02148 4.551384,-0.123915 6.821649,-0.08323"
       id="path3049" />
    <path
       style="fill:#000000;stroke:#000000;stroke-width:0.264583px;stroke-linecap:butt;stroke-linejoin:miter;stroke-opacity:1"
       d="m 73.587554,53.766492 c 1.812321,0.209158 3.660039,0.173683 5.467413,0.204295"
       id="path3051" />
    <path
       style="fill:#000000;stroke:#000000;stroke-width:0.264583px;stroke-linecap:butt;stroke-linejoin:miter;stroke-opacity:1"
       d="m 34.508164,53.554627 c 3.793935,0.552212 7.62531,0.560173 11.447923,0.643157"
       id="path3053" />
    <path
       style="fill:#000000;stroke:#000000;stroke-width:0.264583px;stroke-linecap:butt;stroke-linejoin:miter;stroke-opacity:1"
       d="m 31.614641,34.176641 c -1.451752,-0.230089 2.915955,0.373283 4.373933,0.559925"
       id="path3055" />
    <path
       style="fill:#000000;stroke:#000000;stroke-width:0.264583px;stroke-linecap:butt;stroke-linejoin:miter;stroke-opacity:1"
       d="m 67.077126,40.434193 c 5.811451,-0.08003 6.553269,-0.01722 11.136699,3.805987"
       id="path3057" />
    <path
       style="fill:#000000;stroke:#000000;stroke-width:0.264583px;stroke-linecap:butt;stroke-linejoin:miter;stroke-opacity:1"
       d="m 79.635354,79.704694 c -4.944583,-0.463251 7.306141,0.255865 7.923543,0.279963"
       id="path3059" />
    <path
       style="fill:#000000;stroke:#000000;stroke-width:0.264583px;stroke-linecap:butt;stroke-linejoin:miter;stroke-opacity:1"
       d="m 46.368247,65.895703 c 11.474476,-1.978382 -2.693667,0.138584 4.853382,-0.249698"
       id="path3061" />
    <path
       style="fill:#000000;stroke:#000000;stroke-width:0.264583px;stroke-linecap:butt;stroke-linejoin:miter;stroke-opacity:1"
       d="m 41.329816,94.6865 c 3.269231,1.107241 6.538465,2.214483 9.807699,3.321727 0.137385,0 0.274773,0 0.412157,0"
       id="path3063" />
    <path
       style="fill:#000000;stroke:#000000;stroke-width:0.264583px;stroke-linecap:butt;stroke-linejoin:miter;stroke-opacity:1"
       d="m 75.850223,96.426813 c 4.569983,-6.359644 4.488449,-5.446565 10.396497,-5.046904"
       id="path3065" />
  </g>
</svg>
