<?xml version="1.0" encoding="UTF-8" standalone="no"?>
<!-- Created with Inkscape (http://www.inkscape.org/) -->

<svg
   width="512"
   height="512"
   viewBox="0 0 135.46666 135.46667"
   version="1.1"
   id="svg5"
   inkscape:version="1.1 (c68e22c387, 2021-05-23)"
   sodipodi:docname="icon001.svg"
   xmlns:inkscape="http://www.inkscape.org/namespaces/inkscape"
   xmlns:sodipodi="http://sodipodi.sourceforge.net/DTD/sodipodi-0.dtd"
   xmlns="http://www.w3.org/2000/svg"
   xmlns:svg="http://www.w3.org/2000/svg">
  <sodipodi:namedview
     id="namedview7"
     pagecolor="#505050"
     bordercolor="#eeeeee"
     borderopacity="1"
     inkscape:pageshadow="0"
     inkscape:pageopacity="0"
     inkscape:pagecheckerboard="0"
     inkscape:document-units="mm"
     showgrid="false"
     units="px"
     inkscape:zoom="0.84582576"
     inkscape:cx="259.50971"
     inkscape:cy="257.14516"
     inkscape:window-width="878"
     inkscape:window-height="729"
     inkscape:window-x="472"
     inkscape:window-y="0"
     inkscape:window-maximized="0"
     inkscape:current-layer="layer1" />
  <defs
     id="defs2" />
  <g
     inkscape:label="Layer 1"
     inkscape:groupmode="layer"
     id="layer1">
    <path
       style="fill:#000000;stroke:#000000;stroke-width:0.264583px;stroke-linecap:butt;stroke-linejoin:miter;stroke-opacity:1"
       d="M 15.624561,107.15621 C 8.0800436,87.220125 24.721733,51.117229 10.914174,31.838572 c 18.441557,-8.604125 38.140922,6.082013 51.158167,11.803848 -2.701749,5.263571 -0.560455,10.874444 -1.236476,16.389191 -1.759576,14.354019 -2.939276,28.697107 -3.457088,43.137019 -0.09232,2.57453 2.803973,14.4624 1.514053,16.57835 -0.663601,1.08856 -0.525433,-2.49919 -0.908432,-3.71518"
       id="path2494" />
    <path
       style="fill:#000000;stroke:#000000;stroke-width:0.264583px;stroke-linecap:butt;stroke-linejoin:miter;stroke-opacity:1"
       d="m 57.984397,116.0318 c -9.931061,-12.74884 -36.10029,-4.52123 -42.359836,-8.87559"
       id="path2496" />
    <path
       style="fill:#000000;stroke:#000000;stroke-width:0.264583px;stroke-linecap:butt;stroke-linejoin:miter;stroke-opacity:1"
       d="M 62.072339,43.64242 C 79.507087,24.857502 101.1896,27.788089 121.84379,32.360663 c -13.44328,1.326585 -16.9958,84.437317 -14.42556,92.947747 l -41.754398,-6.73663 z"
       id="path2498"
       sodipodi:nodetypes="ccccc" />
    <path
       style="fill:#000000;stroke:#000000;stroke-width:0.264583px;stroke-linecap:butt;stroke-linejoin:miter;stroke-opacity:1"
       d="m 60.432116,122.32718 c 16.212658,-20.62983 39.572484,1.27245 46.986114,2.98123"
       id="path2500" />
    <path
       style="fill:#000000;stroke:#000000;stroke-width:0.264583px;stroke-linecap:butt;stroke-linejoin:miter;stroke-opacity:1"
       d="m 121.84379,32.360663 c 0.48892,-0.272917 8.89178,3.837128 8.14224,6.197021 -0.31935,1.005456 -2.36284,-1.508964 -3.07858,-0.733957 -2.08799,2.260891 -3.68269,5.310957 -4.73562,8.16433 -7.39617,20.043084 -13.09366,51.64852 -10.06004,72.934173 1.9223,13.48793 -8.51416,6.72181 -4.69356,6.38618"
       id="path2502" />
    <path
       style="fill:#ffffff;stroke:#000000;stroke-width:0.264583px;stroke-linecap:butt;stroke-linejoin:miter;stroke-opacity:1"
       d="m 69.962238,51.345189 c 7.320391,-6.226119 21.088437,-5.95494 27.042668,-2.33807"
       id="path2504" />
    <path
       style="fill:#ffffff;stroke:#000000;stroke-width:0.264583px;stroke-linecap:butt;stroke-linejoin:miter;stroke-opacity:1"
       d="m 70.004296,70.829106 c 5.239322,-4.99922 18.65076,-8.302131 23.417353,-4.312944"
       id="path2506" />
    <path
       style="fill:#ffffff;stroke:#000000;stroke-width:0.264583px;stroke-linecap:butt;stroke-linejoin:miter;stroke-opacity:1"
       d="M 75.623115,91.16048 C 71.287303,86.27874 91.822774,87.437184 96.575924,89.783363"
       id="path2508" />
    <path
       style="fill:#000000;stroke:#000000;stroke-width:0.264583px;stroke-linecap:butt;stroke-linejoin:miter;stroke-opacity:1"
       d="M 47.890713,59.138756 C 46.578715,51.776222 34.843447,40.701142 28.494011,46.162086"
       id="path2510" />
    <path
       style="fill:#000000;stroke:#000000;stroke-width:0.264583px;stroke-linecap:butt;stroke-linejoin:miter;stroke-opacity:1"
       d="M 42.843868,87.49826 C 41.104134,80.799153 33.078798,71.738669 26.281811,76.6251"
       id="path2512" />
    <path
       style="fill:#000000;stroke:#000000;stroke-width:0.264583px;stroke-linecap:butt;stroke-linejoin:miter;stroke-opacity:1"
       d="M 46.233664,102.19254 C 40.05354,99.628215 31.798704,96.821854 26.626679,98.197391"
       id="path2514" />
  </g>
</svg>
